<svg width="196" height="196" viewBox="0 0 196 196" fill="none" xmlns="http://www.w3.org/2000/svg">
<path id="Vector" d="M98.0001 0.98C117.189 0.98 135.947 6.67012 151.902 17.3308C167.856 27.9915 180.292 43.1439 187.635 60.872C194.978 78.6001 196.899 98.1076 193.156 116.928C189.412 135.748 180.172 153.035 166.604 166.603C153.035 180.172 135.748 189.412 116.928 193.156C98.1076 196.899 78.6002 194.978 60.8721 187.635C43.144 180.292 27.9916 167.856 17.3309 151.901C6.67017 135.947 0.980103 117.189 0.980103 98C1.01122 72.2783 11.2429 47.6189 29.431 29.4309C47.619 11.2428 72.2784 1.01112 98.0001 0.98ZM98.0001 0C78.6175 0 59.6703 5.74759 43.5542 16.516C27.4382 27.2843 14.8773 42.5898 7.45992 60.497C0.0425337 78.4042 -1.89829 98.1087 1.88306 117.119C5.66441 136.129 14.9981 153.591 28.7036 167.296C42.4092 181.002 59.8711 190.336 78.8813 194.117C97.8914 197.898 117.596 195.958 135.503 188.54C153.41 181.123 168.716 168.562 179.484 152.446C190.253 136.33 196 117.383 196 98C196 72.0088 185.675 47.0821 167.297 28.7035C148.918 10.325 123.991 0 98.0001 0Z" fill="url(#paint0_linear_8_420)"/>
<defs>
<linearGradient id="paint0_linear_8_420" x1="0" y1="98" x2="196" y2="98" gradientUnits="userSpaceOnUse">
<stop stop-color="#9945FF"/>
<stop offset="1" stop-color="#14F195"/>
</linearGradient>
</defs>
</svg>
