<svg width="174" height="174" viewBox="0 0 174 174" fill="none" xmlns="http://www.w3.org/2000/svg">
<g id="Group 28">
<g id="Group 105">
<path id="Vector" d="M82.5356 0.350861L83.0163 7.72642" stroke="#FF4646" stroke-width="0.5" stroke-miterlimit="10"/>
<path id="Vector_2" d="M77.1012 0.812958L78.0255 8.15155" stroke="#FF4646" stroke-width="0.5" stroke-miterlimit="10"/>
<path id="Vector_3" d="M71.7034 1.60782L73.0898 8.87247" stroke="#FF4646" stroke-width="0.5" stroke-miterlimit="10"/>
<path id="Vector_4" d="M66.3613 2.75391L68.2098 9.90765" stroke="#FF4646" stroke-width="0.5" stroke-miterlimit="10"/>
<path id="Vector_5" d="M61.1116 4.21423L63.4037 11.2571" stroke="#FF4646" stroke-width="0.5" stroke-miterlimit="10"/>
<path id="Vector_6" d="M55.9541 6.00726L58.6714 12.8837" stroke="#FF4646" stroke-width="0.5" stroke-miterlimit="10"/>
<path id="Vector_7" d="M50.9261 8.13309L54.0686 14.8247" stroke="#FF4646" stroke-width="0.5" stroke-miterlimit="10"/>
<path id="Vector_8" d="M46.046 10.5546L49.5952 17.0429" stroke="#FF4646" stroke-width="0.5" stroke-miterlimit="10"/>
<path id="Vector_9" d="M41.3138 13.2904L45.2697 19.5384" stroke="#FF4646" stroke-width="0.5" stroke-miterlimit="10"/>
<path id="Vector_10" d="M36.7666 16.322L41.1106 22.2927" stroke="#FF4646" stroke-width="0.5" stroke-miterlimit="10"/>
<path id="Vector_11" d="M32.4226 19.6123L37.1363 25.3057" stroke="#FF4646" stroke-width="0.5" stroke-miterlimit="10"/>
<path id="Vector_12" d="M28.282 23.18L33.3469 28.5776" stroke="#FF4646" stroke-width="0.5" stroke-miterlimit="10"/>
<path id="Vector_13" d="M24.3815 27.0064L29.7791 32.0713" stroke="#FF4646" stroke-width="0.5" stroke-miterlimit="10"/>
<path id="Vector_14" d="M20.74 31.0547L26.4334 35.7684" stroke="#FF4646" stroke-width="0.5" stroke-miterlimit="10"/>
<path id="Vector_15" d="M17.3572 35.3432L23.3279 39.6872" stroke="#FF4646" stroke-width="0.5" stroke-miterlimit="10"/>
<path id="Vector_16" d="M14.2333 39.8166L20.4812 43.7909" stroke="#FF4646" stroke-width="0.5" stroke-miterlimit="10"/>
<path id="Vector_17" d="M11.405 44.4933L17.8933 48.061" stroke="#FF4646" stroke-width="0.5" stroke-miterlimit="10"/>
<path id="Vector_18" d="M8.89099 49.3364L15.5826 52.4789" stroke="#FF4646" stroke-width="0.5" stroke-miterlimit="10"/>
<path id="Vector_19" d="M6.67285 54.3089L13.5493 57.0447" stroke="#FF4646" stroke-width="0.5" stroke-miterlimit="10"/>
<path id="Vector_20" d="M4.7688 59.4293L11.7931 61.7215" stroke="#FF4646" stroke-width="0.5" stroke-miterlimit="10"/>
<path id="Vector_21" d="M3.19763 64.6606L10.3514 66.4906" stroke="#FF4646" stroke-width="0.5" stroke-miterlimit="10"/>
<path id="Vector_22" d="M1.94067 69.9658L9.20533 71.3522" stroke="#FF4646" stroke-width="0.5" stroke-miterlimit="10"/>
<path id="Vector_23" d="M1.03479 75.3635L8.37338 76.2877" stroke="#FF4646" stroke-width="0.5" stroke-miterlimit="10"/>
<path id="Vector_24" d="M0.461792 80.7796L7.83736 81.2417" stroke="#FF4646" stroke-width="0.5" stroke-miterlimit="10"/>
<path id="Vector_25" d="M0.23999 86.2327H7.63404" stroke="#FF4646" stroke-width="0.5" stroke-miterlimit="10"/>
</g>
<g id="Group 106">
<path id="Vector_26" d="M0.35083 91.7043L7.72639 91.2237" stroke="#FFA234" stroke-width="0.5" stroke-miterlimit="10"/>
<path id="Vector_27" d="M0.812988 97.1389L8.15158 96.2147" stroke="#FFA234" stroke-width="0.5" stroke-miterlimit="10"/>
<path id="Vector_28" d="M1.60779 102.537L8.87244 101.15" stroke="#FFA234" stroke-width="0.5" stroke-miterlimit="10"/>
<path id="Vector_29" d="M2.75403 107.879L9.90777 106.03" stroke="#FFA234" stroke-width="0.5" stroke-miterlimit="10"/>
<path id="Vector_30" d="M4.21423 113.129L11.2571 110.836" stroke="#FFA234" stroke-width="0.5" stroke-miterlimit="10"/>
<path id="Vector_31" d="M6.00732 118.286L12.8838 115.569" stroke="#FFA234" stroke-width="0.5" stroke-miterlimit="10"/>
<path id="Vector_32" d="M8.13318 123.314L14.8248 120.171" stroke="#FFA234" stroke-width="0.5" stroke-miterlimit="10"/>
<path id="Vector_33" d="M10.5547 128.194L17.043 124.645" stroke="#FFA234" stroke-width="0.5" stroke-miterlimit="10"/>
<path id="Vector_34" d="M13.2904 132.926L19.5384 128.97" stroke="#FFA234" stroke-width="0.5" stroke-miterlimit="10"/>
<path id="Vector_35" d="M16.322 137.473L22.2927 133.129" stroke="#FFA234" stroke-width="0.5" stroke-miterlimit="10"/>
<path id="Vector_36" d="M19.6124 141.817L25.3058 137.104" stroke="#FFA234" stroke-width="0.5" stroke-miterlimit="10"/>
<path id="Vector_37" d="M23.1801 145.958L28.5777 140.893" stroke="#FFA234" stroke-width="0.5" stroke-miterlimit="10"/>
<path id="Vector_38" d="M27.0063 149.858L32.0713 144.461" stroke="#FFA234" stroke-width="0.5" stroke-miterlimit="10"/>
<path id="Vector_39" d="M31.0547 153.5L35.7684 147.807" stroke="#FFA234" stroke-width="0.5" stroke-miterlimit="10"/>
<path id="Vector_40" d="M35.3431 156.883L39.6871 150.912" stroke="#FFA234" stroke-width="0.5" stroke-miterlimit="10"/>
<path id="Vector_41" d="M39.8167 160.007L43.791 153.759" stroke="#FFA234" stroke-width="0.5" stroke-miterlimit="10"/>
<path id="Vector_42" d="M44.4934 162.835L48.061 156.347" stroke="#FFA234" stroke-width="0.5" stroke-miterlimit="10"/>
<path id="Vector_43" d="M49.3364 165.349L52.4789 158.657" stroke="#FFA234" stroke-width="0.5" stroke-miterlimit="10"/>
<path id="Vector_44" d="M54.309 167.567L57.0448 160.691" stroke="#FFA234" stroke-width="0.5" stroke-miterlimit="10"/>
<path id="Vector_45" d="M59.4293 169.471L61.7215 162.447" stroke="#FFA234" stroke-width="0.5" stroke-miterlimit="10"/>
<path id="Vector_46" d="M64.6606 171.042L66.4907 163.889" stroke="#FFA234" stroke-width="0.5" stroke-miterlimit="10"/>
<path id="Vector_47" d="M69.9659 172.299L71.3523 165.035" stroke="#FFA234" stroke-width="0.5" stroke-miterlimit="10"/>
<path id="Vector_48" d="M75.3635 173.205L76.2878 165.867" stroke="#FFA234" stroke-width="0.5" stroke-miterlimit="10"/>
<path id="Vector_49" d="M80.7797 173.778L81.2418 166.403" stroke="#FFA234" stroke-width="0.5" stroke-miterlimit="10"/>
<path id="Vector_50" d="M86.2328 174V166.606" stroke="#FFA234" stroke-width="0.5" stroke-miterlimit="10"/>
</g>
<path id="Vector_51" d="M91.7044 173.889L91.2238 166.514" stroke="#9945FF" stroke-width="0.5" stroke-miterlimit="10"/>
<path id="Vector_52" d="M97.139 173.427L96.2147 166.088" stroke="#9945FF" stroke-width="0.5" stroke-miterlimit="10"/>
<path id="Vector_53" d="M102.537 172.632L101.15 165.368" stroke="#9945FF" stroke-width="0.5" stroke-miterlimit="10"/>
<path id="Vector_54" d="M107.879 171.486L106.03 164.332" stroke="#9945FF" stroke-width="0.5" stroke-miterlimit="10"/>
<path id="Vector_55" d="M113.129 170.026L110.836 162.983" stroke="#9945FF" stroke-width="0.5" stroke-miterlimit="10"/>
<path id="Vector_56" d="M118.286 168.233L115.569 161.356" stroke="#9945FF" stroke-width="0.5" stroke-miterlimit="10"/>
<path id="Vector_57" d="M123.314 166.107L120.171 159.415" stroke="#9945FF" stroke-width="0.5" stroke-miterlimit="10"/>
<path id="Vector_58" d="M128.194 163.685L124.645 157.197" stroke="#9945FF" stroke-width="0.5" stroke-miterlimit="10"/>
<path id="Vector_59" d="M132.926 160.95L128.97 154.702" stroke="#9945FF" stroke-width="0.5" stroke-miterlimit="10"/>
<path id="Vector_60" d="M137.474 157.918L133.13 151.947" stroke="#9945FF" stroke-width="0.5" stroke-miterlimit="10"/>
<path id="Vector_61" d="M141.818 154.628L137.104 148.934" stroke="#9945FF" stroke-width="0.5" stroke-miterlimit="10"/>
<path id="Vector_62" d="M145.958 151.06L140.893 145.662" stroke="#9945FF" stroke-width="0.5" stroke-miterlimit="10"/>
<path id="Vector_63" d="M149.84 147.234L144.461 142.169" stroke="#9945FF" stroke-width="0.5" stroke-miterlimit="10"/>
<path id="Vector_64" d="M153.5 143.185L147.807 138.472" stroke="#9945FF" stroke-width="0.5" stroke-miterlimit="10"/>
<path id="Vector_65" d="M156.883 138.897L150.912 134.553" stroke="#9945FF" stroke-width="0.5" stroke-miterlimit="10"/>
<path id="Vector_66" d="M160.007 134.423L153.759 130.449" stroke="#9945FF" stroke-width="0.5" stroke-miterlimit="10"/>
<path id="Vector_67" d="M162.835 129.747L156.347 126.179" stroke="#9945FF" stroke-width="0.5" stroke-miterlimit="10"/>
<path id="Vector_68" d="M165.349 124.904L158.657 121.761" stroke="#9945FF" stroke-width="0.5" stroke-miterlimit="10"/>
<path id="Vector_69" d="M167.567 119.931L160.691 117.195" stroke="#9945FF" stroke-width="0.5" stroke-miterlimit="10"/>
<path id="Vector_70" d="M169.471 114.811L162.447 112.519" stroke="#9945FF" stroke-width="0.5" stroke-miterlimit="10"/>
<path id="Vector_71" d="M171.043 109.579L163.889 107.749" stroke="#9945FF" stroke-width="0.5" stroke-miterlimit="10"/>
<path id="Vector_72" d="M172.3 104.274L165.035 102.888" stroke="#9945FF" stroke-width="0.5" stroke-miterlimit="10"/>
<path id="Vector_73" d="M173.205 98.8765L165.867 97.9523" stroke="#9945FF" stroke-width="0.5" stroke-miterlimit="10"/>
<path id="Vector_74" d="M173.778 93.4604L166.403 92.9983" stroke="#9945FF" stroke-width="0.5" stroke-miterlimit="10"/>
<path id="Vector_75" d="M173.889 82.5357L166.514 83.0163" stroke="#14F195" stroke-width="0.5" stroke-miterlimit="10"/>
<path id="Vector_76" d="M173.427 77.1011L166.089 78.0253" stroke="#14F195" stroke-width="0.5" stroke-miterlimit="10"/>
<path id="Vector_77" d="M172.632 71.7034L165.368 73.0898" stroke="#14F195" stroke-width="0.5" stroke-miterlimit="10"/>
<path id="Vector_78" d="M171.486 66.3612L164.332 68.2097" stroke="#14F195" stroke-width="0.5" stroke-miterlimit="10"/>
<path id="Vector_79" d="M170.026 61.1114L162.983 63.4036" stroke="#14F195" stroke-width="0.5" stroke-miterlimit="10"/>
<path id="Vector_80" d="M168.233 55.9541L161.356 58.6714" stroke="#14F195" stroke-width="0.5" stroke-miterlimit="10"/>
<path id="Vector_81" d="M166.107 50.9261L159.415 54.0686" stroke="#14F195" stroke-width="0.5" stroke-miterlimit="10"/>
<path id="Vector_82" d="M163.685 46.0461L157.197 49.5952" stroke="#14F195" stroke-width="0.5" stroke-miterlimit="10"/>
<path id="Vector_83" d="M160.95 41.3139L154.702 45.2697" stroke="#14F195" stroke-width="0.5" stroke-miterlimit="10"/>
<path id="Vector_84" d="M157.918 36.7665L151.947 41.1105" stroke="#14F195" stroke-width="0.5" stroke-miterlimit="10"/>
<path id="Vector_85" d="M154.628 32.4225L148.934 37.1362" stroke="#14F195" stroke-width="0.5" stroke-miterlimit="10"/>
<path id="Vector_86" d="M151.06 28.2819L145.662 33.3468" stroke="#14F195" stroke-width="0.5" stroke-miterlimit="10"/>
<path id="Vector_87" d="M147.234 24.4L142.169 29.7791" stroke="#14F195" stroke-width="0.5" stroke-miterlimit="10"/>
<path id="Vector_88" d="M143.185 20.7399L138.472 26.4333" stroke="#14F195" stroke-width="0.5" stroke-miterlimit="10"/>
<path id="Vector_89" d="M138.897 17.3571L134.553 23.3278" stroke="#14F195" stroke-width="0.5" stroke-miterlimit="10"/>
<path id="Vector_90" d="M134.424 14.2332L130.449 20.4812" stroke="#14F195" stroke-width="0.5" stroke-miterlimit="10"/>
<path id="Vector_91" d="M129.747 11.4049L126.179 17.8932" stroke="#14F195" stroke-width="0.5" stroke-miterlimit="10"/>
<path id="Vector_92" d="M124.904 8.89096L121.761 15.5826" stroke="#14F195" stroke-width="0.5" stroke-miterlimit="10"/>
<path id="Vector_93" d="M119.931 6.67276L117.195 13.5492" stroke="#14F195" stroke-width="0.5" stroke-miterlimit="10"/>
<path id="Vector_94" d="M114.811 4.7688L112.519 11.7931" stroke="#14F195" stroke-width="0.5" stroke-miterlimit="10"/>
<path id="Vector_95" d="M109.579 3.19754L107.749 10.3513" stroke="#14F195" stroke-width="0.5" stroke-miterlimit="10"/>
<path id="Vector_96" d="M104.274 1.94058L102.888 9.20523" stroke="#14F195" stroke-width="0.5" stroke-miterlimit="10"/>
<path id="Vector_97" d="M98.8766 1.03476L97.9524 8.37335" stroke="#14F195" stroke-width="0.5" stroke-miterlimit="10"/>
<path id="Vector_98" d="M93.4604 0.461731L92.9983 7.83729" stroke="#14F195" stroke-width="0.5" stroke-miterlimit="10"/>
<path id="Vector_99" d="M88.0073 0.239929V15.028" stroke="#14F195" stroke-miterlimit="10"/>
<path id="Vector_100" d="M88.0073 159V173.788" stroke="#FFA234" stroke-miterlimit="10"/>
<path id="Vector_101" d="M174 88.0073H159.212" stroke="#9945FF" stroke-miterlimit="10"/>
<path id="Vector_102" d="M14.7881 88.0073H0" stroke="#FF4646" stroke-miterlimit="10"/>
</g>
</svg>
